PathFileType	4	(X/Y/Z)	C:/Users/beibeiliu/ov580/test_trc/capture2\sequence.4_training_dense_right.trc
DataRate	CameraRate	NumFrames	NumMarkers	Units	OrigDataRate	OrigDataStartFrame	OrigNumFrames
120	120	8	19	mm	120	222	355
Frame#	Time	ThumbCMC			ThumbMCP			ThumbIP			ThumbTip			IndexMCP			IndexPIP			IndexTip			MiddleMCP			MiddlePIP			MiddleTip			RingMCP			RingPIP			RingTip			PinkyMCP			PinkyPIP			PinkyTip			BackHand1			BackHand2			BackHand3	
		X0	Y0	Z0	X1	Y1	Z1	X2	Y2	Z2	X3	Y3	Z3	X4	Y4	Z4	X5	Y5	Z5	X6	Y6	Z6	X7	Y7	Z7	X8	Y8	Z8	X9	Y9	Z9	X10	Y10	Z10	X11	Y11	Z11	X12	Y12	Z12	X13	Y13	Z13	X14	Y14	Z14	X15	Y15	Z15	X16	Y16	Z16	X17	Y17	Z17	X18	Y18	Z18	
221	1.84167	87.1631	33.7699	-19.7794	86.0253	9.1922	-43.865	93.576	1.23677	-68.6647	114.489	1.70051	-90.3553	100.024	62.9385	-89.1131	101.623	61.9968	-110.584	102.129	67.2024	-135.009	122.812	38.301	-88.2401	118.407	4.95065	-81.0593	116.711	10.6835	-46.5452	139.729	31.5318	-76.2385	134.006	4.3402	-57.5687	122.685	19.9868	-32.4522	155.925	29.2384	-66.8142	143.363	10.0544	-48.9518	136.743	28.2834	-22.8841	140.271	71.7803	-36.4783	135.538	69.123	-4.66508	107.908	70.1795	-23.3979	
222	1.85	86.3478	27.4169	-19.7594	85.7943	4.07376	-39.2717	90.8396	-8.50089	-69.3862	108.924	-11.3328	-85.7422	97.6626	49.6595	-90.4721	100.95	47.9717	-114.185	101.765	50.4984	-134.36	119.285	27.5058	-87.1603	118.133	-6.20805	-78.6274	114.312	-0.872253	-44.9247	136.289	17.1649	-76.4943	132.925	-4.52596	-56.3912	123.064	14.7865	-28.4238	152.259	16.1141	-65.7041	140.882	1.35782	-43.3384	131.182	19.7247	-23.4034	140.948	63.7205	-39.3184	135.595	64.0098	-10.0292	104.293	61.5917	-27.9836	
223	1.85833	87.9593	22.0851	-17.9205	84.8029	-4.05482	-41.0451	90.7182	-15.9014	-60.3959	111.212	-21.2046	-85.0744	94.6054	37.377	-89.4466	93.4817	33.485	-112.517	101.163	33.8676	-137.851	117.081	12.793	-87.5813	119.508	-16.7889	-73.6146	115.126	-8.62846	-42.0137	136.903	5.20538	-75.5778	129.435	-13.8523	-53.1056	122.39	6.51949	-25.9521	151.103	13.0587	-64.085	138.937	-6.91154	-41.4783	132.845	17.3216	-20.6205	136.002	56.4589	-41.62	133.71	60.9927	-12.0255	103.525	56.9873	-26.4983	
224	1.86667	83.8115	15.3123	-16.6308	86.5394	-11.3088	-38.0484	91.9138	-25.9101	-58.6211	109.247	-33.0572	-78.1851	94.6523	24.8986	-90.6825	94.509	17.6952	-112.681	97.7476	16.4526	-138.498	115.94	3.01203	-86.2817	121.016	-27.1817	-70.0651	113.609	-15.9958	-37.7688	137.378	0.61008	-73.1652	131.071	-24.0187	-50.1582	120.017	-2.73546	-25.8969	149.476	0.265438	-63.1707	138.248	-15.8193	-40.782	130.719	5.3915	-19.806	137.392	46.5764	-45.528	134.055	52.0139	-13.3488	104.388	49.7187	-28.62	
225	1.875	83.1652	7.28579	-17.1261	84.7855	-22.0646	-32.0483	92.7184	-37.4042	-55.7229	111.124	-44.0775	-73.0192	95.6186	14.2502	-89.9118	90.8386	4.14309	-113.306	99.8321	0.49999	-135.35	116.961	-9.55758	-83.429	116.181	-36.9909	-67.4285	113.39	-24.8608	-35.2914	136.521	-14.3405	-71.6715	128.645	-32.0634	-50.4091	124.304	-13.9088	-21.6324	146.029	-9.93444	-61.571	142.928	-24.7202	-35.9973	128.587	0.879571	-16.9099	132.675	36.4523	-46.3865	134.629	46.3801	-14.5997	101.219	42.2072	-28.8992	
226	1.88333	85.054	0.741004	-12.0447	85.313	-33.2777	-31.3974	92.6598	-49.3507	-48.7595	113.091	-56.5752	-69.0824	91.4792	1.09487	-85.4361	95.0901	-9.99916	-109.778	100.234	-15.7667	-130.931	119.623	-22.6645	-80.4992	116.319	-47.9972	-62.0656	114.197	-30.9711	-30.843	134.283	-25.4435	-68.3036	131.36	-42.2565	-46.4912	121.507	-24.0952	-20.547	148.788	-16.5638	-58.1519	139.601	-33.2471	-34.9194	128.277	-12.0695	-13.7393	135.362	29.8069	-47.1743	129.113	39.5326	-13.3123	99.8372	31.1009	-30.1661	
227	1.89167	84.5982	-6.27421	-10.2499	84.7965	-41.878	-23.945	96.5205	-57.858	-44.38	113.861	-63.3779	-58.1356	95.063	-11.5519	-87.1869	94.5736	-25.3178	-109.474	100.008	-33.5286	-128.936	119.654	-32.5117	-76.7673	117.625	-57.133	-57.1782	114.214	-38.7997	-26.756	134.295	-34.5297	-64.0429	129.479	-51.1918	-40.4413	122.051	-27.6989	-13.7952	147.662	-27.5569	-54.1679	138.816	-40.5355	-28.3503	129.873	-16.2961	-10.8896	132.945	20.8771	-44.9085	127.763	34.4146	-12.9804	101.324	25.6328	-27.8427	
228	1.9	80.102	-15.9138	-11.4904	83.8246	-48.0854	-18.941	97.232	-65.2372	-39.1139	117.807	-72.408	-53.9255	95.4032	-21.5938	-81.684	94.9703	-34.7741	-101.623	97.5767	-48.7124	-126.727	120.266	-38.4532	-71.3496	119.606	-64.7007	-52.5087	110.855	-45.2187	-21.8392	133.499	-38.894	-59.9655	132.05	-57.6301	-32.1932	120.051	-33.3922	-10.4064	152.118	-34.2803	-49.6327	142.291	-48.7786	-26.7778	125.537	-24.508	-8.75747	131.008	15.0086	-42.0522	126.316	28.3917	-14.3582	96.3056	16.8084	-31.6939	
